<?xml version="1.0" encoding="UTF-8"?>
<svg id="Capa_2" data-name="Capa 2" xmlns="http://www.w3.org/2000/svg" viewBox="0 0 201.85 95.24">
  <defs>
    <style>
      .cls-1 {
        fill: #00c8ff;
      }
    </style>
  </defs>
  <g id="Capa_1-2" data-name="Capa 1">
    <g>
      <path class="cls-1" d="M21.56,55.64c-2.74-.09-.06,1.49.68,2.24-.46-1.06.31-1.49,1.34-1.14-.6-.43-1.31-.81-2.03-1.09Z"/>
      <path class="cls-1" d="M23.03,59.68c.71-.03,1.24-.27,1.55-.5.06-.31.06-.99.09-1.31-.91.19-1.49.91-1.64,1.8Z"/>
      <path class="cls-1" d="M47.18,87.01c-.93-.72-3.98.27-3.03-3.17.23-.85,1.47-1.12,1.54-1.74.06-.97-1.04-.78-1.18-1.55-.27-1.16-.17-2.49-.98-3.39-.45.37-1.95,1.24-2.75,2.18-.75.87-1.06,3.27-2.36,2.61.12,1.87,1.12,3.17,2.42,4.58,1.26,1.39,1.8,1.89,3.61,2.51,1.43.47,5.84.35,2.74-2.01Z"/>
      <path class="cls-1" d="M40.81,93.32c.06-.9.42-1.68,1.08-2.24-1.89-.81-2.09.56-1.08,2.24Z"/>
      <path class="cls-1" d="M135.12,55.25c.65-.87.58-2.09,1.95-1.99-.21-.29-.81-2.09-1.16-2.18-1.51-.29-1.43,3.48-.79,4.17Z"/>
      <path class="cls-1" d="M65.52,79.55c-.99.25-2.82,1.55-3.69,2.08-.77.5-1.62.66-1.57,1.72.79-.72,2.03-.44,3.19-1.22.52-.4.52-1.18,1.24-1.39.58-.19.96.87,1.7.56,1.99-.75.78-2.05-.87-1.74Z"/>
      <path class="cls-1" d="M140.68,46.17c-.68,1.45.87,3.38.29,4.62-.22-.02-.1-.31-.27-.33-.33.62,1.18,3.82,1.87,4.19-.2-1.14-.83-2.45.27-3.36,2.64,2.15,2.42-4.6,1.04-6.03-.37-.06-2.69-.19-3.19.91Z"/>
      <path class="cls-1" d="M136.57,48.68c.19-.5.31-.96.14-1.49.45.1-1.49-.21-.95-.4-1.06.37-.12,1.52.81,1.89Z"/>
      <path class="cls-1" d="M30.64,6.69c-2.34-.19-1.89,1.08-.99,2.39,1.96,2.83,2.3-.09.99-2.39Z"/>
      <path class="cls-1" d="M32.75,12.19c.6.87-.19,2.24.72,2.18.31,0,.91-1.68,2.03-1.49-.11-1.06-2.61-2.55-3.71-2.51-1.37.5,1.78.71.96,1.83Z"/>
      <path class="cls-1" d="M201.1,64.32c-.27-1.34-.68-3.17-1.04-4.57-.36-1.46-1.01-3.57-2.01-4.63-.68-.66-.4-1.55-.87-2.15-1.04-1.27-1.74.19-1.89-2.57-.16-2.49-.35-3.98-2.15-5.82-.17-.19-.91.68-1.1.29-.75-1.49.54-2.49,1.12-3.67.25-.53.89-1.74.73-2.09-1.72-3.79-4.13-5.6-4.13-5.6-.72-1.12-1.28-3.98-2.32-3.13-.21.12.73.93.48,1.24-1.68,2.08-3.11-4.17-3.92-5.88-.98-2.11-1.93-6.34-4.02-5.68-.62.19.77,1.62.2,1.99-4,2.7-4.72-8.02-10.4-8.39-2.5-.19-5.16-2.3-7.54-3.42-1.91-.97-3.05-2.77-5.39-2.96-1.1-.09-1.82.87-3.17.5-1.91-.5-2.57-.99-4.49-.62-.68.12-2.05,1.03-2.59.99-1.51-.06-1.88-1.37-3.36-1.49-1.2-.12-4.68,2.18-3.61-1.46.6-1.99,2.26-1.24,3.61-2.11-1.85-1.12-5.29,0-7.13.09-1.63.1-2.94-.4-4.64-.83-2.78-.68-5.14-1.49-7.05-.37-.97-.87.27-2.77-1.82-1.59-.95.6-1.93.12-2.94,1.18-.68.62-.79-.06,0,.81.81.91-1.41,2.11-2.36,3.11-.93.93-1.8,1.93-2.97,2.49-.77.37.56,1.93-.12,2.3-1.66.87-.95-.25-2.92.43-.2.1-.27-.58-.52-.56-1.39.19-.62,2.34-1.8,1.53-.19-.12.5-1.4.06-1.59-.98-.4-3.09,2.86-3.61,3.48-2.36,2.8-6.26,3.86-9.62,4.6-5.89,1.31-12.43,3.67-16.49,8.39-3.79,4.45-12.91,6.07-18.55,6.25-1.65.02-5.45-.19-6.84-.87-2.34-1.09-3.77-4.1-5.12-6.19-.73-1.12-1.45-2.95-2.57-3.51-2.09-1.09-4,3.61-4,3.61-.19-.1-1.22-.68-1.47-.62-.52.12-.43.81-.56.81-.34.09-.65.62-.99.68-.85.15-1-.74-1.72-.74-.83.06-1.39.83-2.24.83-2.01.06-.79-.96-2.22-2.05-1.28-.93-2.82,0-4.2-1.12.72-.87.44-1.99.37-2.89l-2.86-8.58s.6-1.43.33-3.61c-.7-5.7-8.29-5.88-8.29-5.88-.81.93.19,1.96-1.41,2.21-1.06.19-2.47-1.84-2.86-2.3-.64-.75-2.11-2.52-3.42-2.4-1.57.16-1.39,1.59-1.32,2.3.19,1.55.81,1.55,0,2.3-1.62,1.59-2.41-.65-2.8,2.65-.58,4.63-.6,9.41-.87,14.11,1.49-1.03,6.25,3.07,6.69,4.48.58,1.8-.66,2.49-2.51,3.07-.83.29-4.23,1.99-2.32,2.3-.35.44-1.78,1.43-1.93,1.8-.65,1.72,1.26,2.9,1.95,4.29.89,1.8.6,4.72.17,6.53-.56,2.24-3.21,2.9-4.72,4.17-.34.31-2.92,1.78-3.01,2.03-.37,1.49,3.3,2.64,3.82,3.63,1.09,2.11,1.39,5.84.66,8.14,2.2,1.09,1.24-3.32,1.14-4.5-.19-2.11.1-4.23,1.93-5.53,2.55-1.78,6.07-1.28,8.77-.31l15.44,2.64c1.04.5,2.13.62,3.28.91l5.6,2.67,8.02,5.99s.66,9.08,3.13,10.92c.5.4,1.35-.04,1.88.15.44.12.52.85.54.85.83.27,1.87.4,2.73.58.93.22,1.54.47,2.24.78.36.12,1.6,1.18,1.91,1.18,1.06-.16.6-1.78,1.2-2.71,6.34-9.82,7.15,2.61,7.15,2.61.48.66,1.04,2.11,1.12,2.9.08.58-.64,1.02-.56,1.52.17.81,1.29,1.49,1.6,2.4.08.31-.4,1.14-.31,1.68.12.52.93.99.95,1.68.02.99-.58.71-.75,1.24-.08.33-.95,2.26-.83,2.24.27-.1,1.65,2.14,1.65,2.14-.66,3.27,8.79-.9,11.9-1.33.6-.06,2.43.06,2.96-.1,1.1-.37,1.55-1.99,2.78-2.55,2.03-.9,0-1.08.33-2.01.48-1.41,2.34-1.84,3.69-2.34-.31.06-1.24.12-1.62.22,1.31-1.06,2.77-.1,4.23-.06,1.49.06,4.41-.41,5.68-1.43,3.15-2.61-1.41-8.46-3.13-10.79-1.31-1.76-5.66-4.85-6.06-6.78-.2-1.08-.35-3.36-1.59-3.57-3.28-.72-3.96-3.33-3.65-6.22.31-2.96,2.97-3.67,3.77-6.26.25,4.27,13.68-4.13,14.58-5,1.39-1.37,2.7-2.92,4.31-3.92l2.57-2.05c.99-.72.7-2.8,1.29-3.92.52-.99-.15-.99-.15-1.9-.04-2.61.52-4.17,2.11-4.72.4-.15,1.08.41,1.39.22,1.47-1.03,2.77-.16,3.67-1.55l1.43-.04c1.2-1.21.29-3.17,1.68-3.82,2.59-1.28,5.59-.16,8.27-.35,0,0,3.05-1.68,4.79.29,1.12,1.24,4.64,2.57,5.86,3.26,1.35.66,1.47,4.2,2.92,4.33.85.12,1.39-1.37,1.04-1.99,1.32,1.02,1.16,2.95,2.34,4.07.33.31,1.22.41,1.74.68l2.73,2.52c.54.5.71.62,1.35,1.21.98.87.48-.19,1.16,1.12,1.06,2.09-.75,1.43-.75,1.55-.03.22,1.03,2.59,1.12,3.05.21,1.09-.56,1.53.58,2.42.11-.19.33-.4.44-.58.45,1.21.48,4.97,2.51,3.69,12.23-7.67,2.53,3.83,2.53,3.83-1.16.77,1.41,1.64,1.74,2.57.56,1.59-.7,4.14-2.36,4.79-.45.19-1.78.22-2.1.1-.78-.31-1.39-1.43-1.59-1.31-4,2.3,5.47,12.5,3.54,16.1l4.06,6.24c1.12,2.3,3.52,3.54,4.33,5.2.78,1.62,1.62,5.41,4.41,6.3.12-.27.2-.58.31-.9,1.18-1.37,1.55-4.89,2.15-6.63.15-.46.27-1.43.56-1.74.54-.58.85,0,1.49-.44.93-.62,1.76-.99,1.89-2.26.08-.6-2.73-7.31-.17-7.27,1.39.06,2.55,2.61,2.88,3.26,0,0,1.64,9.3,6.7.91.6-.99,2.97-2.09,3.65-2.9,1.08-1.27.37-1.06.12-2.42-.04-.34-.6-.65-.62-.96-.06-1,1.32-2.21,1.82-3.11.67-1.12.48-1.4,1.6-2.21.68-.5,1.82-.77,2.61-.99.85-.29,1.29-.35,1.5-.36-.19-.06-.45-.26-.57-.85Z"/>
      <path class="cls-1" d="M201.68,65.17c.19.07.27,0,0,0h0Z"/>
    </g>
  </g>
</svg>